<svg width="112" height="24" viewBox="0 0 112 24" fill="none" xmlns="http://www.w3.org/2000/svg">
<path d="M66 4.01001C65 4.50001 64.02 4.69901 63 5.00001C61.879 3.73501 60.217 3.66501 58.62 4.26301C57.023 4.86101 55.977 6.32301 56 8.00001V9.00001C52.755 9.08301 49.865 7.60501 48 5.00001C48 5.00001 43.818 12.433 52 16C50.128 17.247 48.261 18.088 46 18C49.308 19.803 52.913 20.423 56.034 19.517C59.614 18.477 62.556 15.794 63.685 11.775C64.0218 10.5527 64.189 9.28987 64.182 8.02201C64.18 7.77301 65.692 5.25001 66 4.00901V4.01001Z" stroke="#0098FF" stroke-width="1.5" stroke-linecap="round" stroke-linejoin="round"/>
<path d="M7 10V14H10V21H14V14H17L18 10H14V8C14 7.73478 14.1054 7.48043 14.2929 7.29289C14.4804 7.10536 14.7348 7 15 7H18V3H15C13.6739 3 12.4021 3.52678 11.4645 4.46447C10.5268 5.40215 10 6.67392 10 8V10H7Z" stroke="#0098FF" stroke-width="2" stroke-linecap="round" stroke-linejoin="round"/>
<path d="M105 5H95C92.7909 5 91 6.79086 91 9V15C91 17.2091 92.7909 19 95 19H105C107.209 19 109 17.2091 109 15V9C109 6.79086 107.209 5 105 5Z" stroke="#0098FF" stroke-width="1.5" stroke-linecap="round" stroke-linejoin="round"/>
<path d="M98 9L103 12L98 15V9Z" stroke="#0098FF" stroke-width="1.5" stroke-linecap="round" stroke-linejoin="round"/>
</svg>
